<?xml version="1.0" standalone="no"?>
<!DOCTYPE svg PUBLIC "-//W3C//DTD SVG 20010904//EN"
 "http://www.w3.org/TR/2001/REC-SVG-20010904/DTD/svg10.dtd">
<svg version="1.0" xmlns="http://www.w3.org/2000/svg"
 width="800.000000pt" height="720.000000pt" viewBox="0 0 800.000000 720.000000"
 preserveAspectRatio="xMidYMid meet">
<metadata>
Created by potrace 1.16, written by Peter Selinger 2001-2019
</metadata>
<g transform="translate(0.000000,720.000000) scale(0.100000,-0.100000)"
fill="#000000" stroke="none">
<path d="M255 7068 c-56 -29 -113 -85 -141 -140 l-24 -47 0 -3257 c0 -2399 3
-3267 11 -3295 14 -46 86 -118 153 -153 l49 -26 1702 0 1701 0 55 29 c30 17
73 49 96 73 78 80 73 -12 71 1343 0 666 -3 1238 -5 1273 l-5 62 -845 0 -845 0
-60 32 c-64 34 -125 98 -145 151 -8 23 -12 172 -12 517 l-1 485 25 53 c28 60
63 94 138 135 l52 27 762 0 c541 0 770 -3 790 -11 15 -6 37 -16 49 -21 11 -5
38 -8 60 -6 l39 3 3 1284 2 1284 -23 51 c-30 65 -88 122 -155 152 l-53 24
-1702 0 c-1700 -1 -1702 -1 -1742 -22z"/>
<path d="M4235 7048 c-56 -29 -113 -85 -141 -140 l-24 -47 0 -1286 0 -1285 31
0 c35 0 109 19 124 32 5 4 333 8 729 8 807 0 772 3 881 -74 42 -29 66 -56 84
-91 l26 -49 3 -472 c2 -335 0 -485 -8 -516 -16 -57 -85 -123 -173 -166 l-68
-32 -814 0 -815 0 0 -1284 c0 -1237 1 -1286 19 -1328 22 -51 67 -95 139 -137
l53 -31 1683 0 1683 0 49 26 c66 36 141 110 156 154 8 26 12 826 13 3280 l1
3245 -22 45 c-32 66 -96 126 -160 150 -54 20 -67 20 -1732 20 -1674 -1 -1677
-1 -1717 -22z"/>
<path d="M3486 4079 c62 -62 124 -119 136 -127 13 -8 71 -61 129 -116 102 -96
160 -146 173 -146 3 0 6 91 6 201 l0 201 -41 49 -41 49 -238 0 -238 0 114
-111z"/>
<path d="M4112 4147 l-42 -43 0 -208 0 -208 31 24 c18 13 79 68 138 124 58 55
116 108 129 116 12 8 74 65 136 127 l114 111 -232 0 -232 0 -42 -43z"/>
</g>
</svg>
